<svg xmlns="http://www.w3.org/2000/svg" version="1.0" viewBox="0 0 212 212">
  <path fill="currentColor" d="M14.3 54.2c.4 52.9.5 53.1 6.1 69.5 11 32.1 38.8 61 75.9 78.9l9.8 4.7 12.2-6.2c41-20.7 68.5-53.5 76.9-92 2-9 2.2-12.5 2.2-56.6l.1-47-91.8-.3L13.9 5l.4 49.2zm170.5 6c-.3 37.6-.6 43.1-2.3 49.5-1 4-2.2 7.3-2.5 7.3-.3 0-2.7-2.8-5.2-6.3-2.5-3.4-5.4-6.9-6.4-7.8-1.3-1.1-11.3-3.2-29.4-6.3-15.1-2.6-28.3-5-29.2-5.2-1.6-.5-1.8-2-1.8-13.7V64.4l-8.6-14.9c-4.8-8.3-9-15.4-9.5-15.9-.4-.5-6.9 1.8-15.1 5.4l-14.3 6.2-8.2 12.5L44 70.2v38.7l-3 5.1c-2.5 4.2-3 6.2-3.1 11.8l-.1 6.7-2.9-6.1c-1.6-3.4-4.1-10.6-5.6-16-2.6-9.8-2.6-10.4-3.1-51.2L25.8 18h159.3l-.3 42.2z" />
</svg>
